# xmcd CD database file generated by OrangeCD 5.2
#
# Track frame offsets:
#	150
#	18426
#	35680
#	47162
#	65565
#	81356
#	104215
#	117868
#	138750
#	157102
#	171452
#	182125
#	202957
#
# Disc length: 2972 seconds
#
# Revision: 0
# Processed by: cddbd v1.5.1PL2 Copyright (c) Steve Scherf et al.
# Submitted via: OrangeCD 5.2
#
DISCID=be0b9a0d
DTITLE=Eric Thompson - Manic and Organic
DYEAR=2002
DGENRE=Country
TTITLE0=Set This House On Fire
TTITLE1=Get Back To It
TTITLE2=It's A Guy Thing
TTITLE3=Metamophic Blues
TTITLE4=Turning On
TTITLE5=Three Souls
TTITLE6=I Don't Know
TTITLE7=The Ballad Of Pierre And Mademoiselle
TTITLE8=Fragile
TTITLE9=Buttonwillow
TTITLE10=I Can't Explain
TTITLE11=P+M (Instrumental Reprise)
TTITLE12=Three Souls (Instrumental Reprise)
EXTD=
EXTT0=
EXTT1=
EXTT2=
EXTT3=
EXTT4=
EXTT5=
EXTT6=
EXTT7=
EXTT8=
EXTT9=
EXTT10=
EXTT11=
EXTT12=
PLAYORDER=
